<mxfile host="app.diagrams.net" modified="2022-01-09T11:50:01.491Z" agent="5.0 (Macintosh; Intel Mac OS X 10_15_7) AppleWebKit/537.36 (KHTML, like Gecko) Chrome/96.0.4664.110 Safari/537.36" etag="YOZ4fqwDTam7US6sYwgR" version="16.2.2" type="github">
  <diagram id="SvmL4DOkmR6AOWgww_nx" name="Page-1">
    <mxGraphModel dx="2021" dy="1094" grid="1" gridSize="10" guides="1" tooltips="1" connect="1" arrows="1" fold="1" page="1" pageScale="1" pageWidth="3300" pageHeight="4681" background="none" math="0" shadow="0">
      <root>
        <mxCell id="0" />
        <mxCell id="1" parent="0" />
        <object label="&lt;font color=&quot;#ffffff&quot;&gt;&amp;lt;%type%&amp;gt;&lt;br&gt;%name%&lt;br&gt;%createAt%&lt;br&gt;&lt;/font&gt;" placeholders="1" type="Proposal" name="Promotion Service Charges" createAt="create_at" id="SMkMiiwuOo15J6uWJtSO-1">
          <mxCell style="rounded=1;whiteSpace=wrap;html=1;fillColor=#FF66B3;noLabel=0;comic=0;recursiveResize=1;" vertex="1" parent="1">
            <mxGeometry x="1390" y="450" width="170" height="100" as="geometry" />
          </mxCell>
        </object>
        <object label="&lt;font color=&quot;#ffffff&quot;&gt;&amp;lt;%type%&amp;gt;&lt;br&gt;%name%&lt;br&gt;%createAt%&lt;br&gt;&lt;/font&gt;" placeholders="1" type="Contract" name="Promotion Service" createAt="create_at" id="SMkMiiwuOo15J6uWJtSO-2">
          <mxCell style="rounded=1;whiteSpace=wrap;html=1;fillColor=#FF66B3;noLabel=0;comic=0;recursiveResize=1;" vertex="1" parent="1">
            <mxGeometry x="1640" y="450" width="170" height="100" as="geometry" />
          </mxCell>
        </object>
        <object label="&lt;font color=&quot;#ffffff&quot;&gt;&amp;lt;%type%&amp;gt;&lt;br&gt;%name%&lt;br&gt;%createAt%&lt;br&gt;%expireAt%&lt;br&gt;&lt;/font&gt;" placeholders="1" type="Fulfilment" name="开启信息推广服务" createAt="create_at" expireAt="expire_at" id="SMkMiiwuOo15J6uWJtSO-3">
          <mxCell style="rounded=1;whiteSpace=wrap;html=1;fillColor=#FF66B3;noLabel=0;comic=0;recursiveResize=1;" vertex="1" parent="1">
            <mxGeometry x="1880" y="610" width="170" height="100" as="geometry" />
          </mxCell>
        </object>
        <object label="&lt;font color=&quot;#ffffff&quot;&gt;&amp;lt;%type%&amp;gt;&lt;br&gt;%name%&lt;br&gt;%createAt%&lt;br&gt;&lt;/font&gt;" placeholders="1" type="Fulfilment" name="自动扣款解除确认" createAt="create_at" id="SMkMiiwuOo15J6uWJtSO-4">
          <mxCell style="rounded=1;whiteSpace=wrap;html=1;fillColor=#FF66B3;noLabel=0;comic=0;recursiveResize=1;" vertex="1" parent="1">
            <mxGeometry x="2128.2999999999997" y="450" width="170" height="100" as="geometry" />
          </mxCell>
        </object>
        <object label="&lt;font color=&quot;#ffffff&quot;&gt;&amp;lt;%type%&amp;gt;&lt;br&gt;%name%&lt;br&gt;%createAt%&lt;br&gt;&lt;/font&gt;" placeholders="1" type="Fulfilment" name="自动扣款协议生效" createAt="create_at" id="SMkMiiwuOo15J6uWJtSO-5">
          <mxCell style="rounded=1;whiteSpace=wrap;html=1;fillColor=#FF66B3;noLabel=0;comic=0;recursiveResize=1;" vertex="1" parent="1">
            <mxGeometry x="2120" y="610" width="170" height="100" as="geometry" />
          </mxCell>
        </object>
        <object label="&lt;font color=&quot;#ffffff&quot;&gt;&amp;lt;%type%&amp;gt;&lt;br&gt;%name%&lt;br&gt;%createAt%&lt;br&gt;%expireAt%&lt;br&gt;&lt;/font&gt;" placeholders="1" type="Fulfilment" name="暂停/停止信息推广服务" createAt="create_at" expireAt="expire_at" id="SMkMiiwuOo15J6uWJtSO-6">
          <mxCell style="rounded=1;whiteSpace=wrap;html=1;fillColor=#FF66B3;noLabel=0;comic=0;recursiveResize=1;" vertex="1" parent="1">
            <mxGeometry x="1888.3" y="450" width="170" height="100" as="geometry" />
          </mxCell>
        </object>
        <object label="&lt;font color=&quot;#ffffff&quot;&gt;&amp;lt;%type%&amp;gt;&lt;br&gt;%name%&lt;br&gt;%createAt%&lt;br&gt;&lt;/font&gt;" placeholders="1" type="Evidence" name="扣款结果通知" createAt="create_at" id="SMkMiiwuOo15J6uWJtSO-11">
          <mxCell style="rounded=1;whiteSpace=wrap;html=1;fillColor=#FF66B3;noLabel=0;comic=0;recursiveResize=1;" vertex="1" parent="1">
            <mxGeometry x="2130" y="800" width="170" height="100" as="geometry" />
          </mxCell>
        </object>
        <object label="&lt;font color=&quot;#ffffff&quot;&gt;&amp;lt;%type%&amp;gt;&lt;br&gt;%name%&lt;br&gt;%createAt%&lt;br&gt;&lt;/font&gt;" placeholders="1" type="Evidence" name="三方adx收集的数据" createAt="create_at" id="SMkMiiwuOo15J6uWJtSO-12">
          <mxCell style="rounded=1;whiteSpace=wrap;html=1;fillColor=#FF66B3;noLabel=0;comic=0;recursiveResize=1;" vertex="1" parent="1">
            <mxGeometry x="1880" y="800" width="170" height="100" as="geometry" />
          </mxCell>
        </object>
        <mxCell id="SMkMiiwuOo15J6uWJtSO-13" style="edgeStyle=orthogonalEdgeStyle;rounded=0;orthogonalLoop=1;jettySize=auto;html=1;exitX=1;exitY=0.5;exitDx=0;exitDy=0;entryX=0;entryY=0.5;entryDx=0;entryDy=0;endArrow=none;endFill=0;" edge="1" parent="1" source="SMkMiiwuOo15J6uWJtSO-1" target="SMkMiiwuOo15J6uWJtSO-2">
          <mxGeometry relative="1" as="geometry">
            <mxPoint x="1670" y="510" as="sourcePoint" />
            <mxPoint x="1770" y="510" as="targetPoint" />
          </mxGeometry>
        </mxCell>
        <mxCell id="SMkMiiwuOo15J6uWJtSO-14" value="1" style="edgeLabel;html=1;align=center;verticalAlign=middle;resizable=0;points=[];" vertex="1" connectable="0" parent="SMkMiiwuOo15J6uWJtSO-13">
          <mxGeometry x="-0.82" relative="1" as="geometry">
            <mxPoint y="-10" as="offset" />
          </mxGeometry>
        </mxCell>
        <mxCell id="SMkMiiwuOo15J6uWJtSO-15" value="1" style="edgeLabel;html=1;align=center;verticalAlign=middle;resizable=0;points=[];" vertex="1" connectable="0" parent="SMkMiiwuOo15J6uWJtSO-13">
          <mxGeometry x="0.72" y="-1" relative="1" as="geometry">
            <mxPoint y="-11" as="offset" />
          </mxGeometry>
        </mxCell>
        <mxCell id="SMkMiiwuOo15J6uWJtSO-17" style="edgeStyle=orthogonalEdgeStyle;rounded=0;orthogonalLoop=1;jettySize=auto;html=1;exitX=1;exitY=0.5;exitDx=0;exitDy=0;entryX=0;entryY=0.5;entryDx=0;entryDy=0;endArrow=none;endFill=0;" edge="1" parent="1" source="SMkMiiwuOo15J6uWJtSO-2" target="SMkMiiwuOo15J6uWJtSO-6">
          <mxGeometry relative="1" as="geometry">
            <mxPoint x="1670" y="510" as="sourcePoint" />
            <mxPoint x="1770" y="510" as="targetPoint" />
            <Array as="points">
              <mxPoint x="1860" y="500" />
              <mxPoint x="1860" y="500" />
            </Array>
          </mxGeometry>
        </mxCell>
        <mxCell id="SMkMiiwuOo15J6uWJtSO-18" value="1" style="edgeLabel;html=1;align=center;verticalAlign=middle;resizable=0;points=[];" vertex="1" connectable="0" parent="SMkMiiwuOo15J6uWJtSO-17">
          <mxGeometry x="-0.82" relative="1" as="geometry">
            <mxPoint y="-10" as="offset" />
          </mxGeometry>
        </mxCell>
        <mxCell id="SMkMiiwuOo15J6uWJtSO-19" value="1" style="edgeLabel;html=1;align=center;verticalAlign=middle;resizable=0;points=[];" vertex="1" connectable="0" parent="SMkMiiwuOo15J6uWJtSO-17">
          <mxGeometry x="0.72" y="-1" relative="1" as="geometry">
            <mxPoint y="-11" as="offset" />
          </mxGeometry>
        </mxCell>
        <mxCell id="SMkMiiwuOo15J6uWJtSO-20" style="edgeStyle=orthogonalEdgeStyle;rounded=0;orthogonalLoop=1;jettySize=auto;html=1;exitX=1;exitY=0.5;exitDx=0;exitDy=0;entryX=0;entryY=0.5;entryDx=0;entryDy=0;endArrow=none;endFill=0;" edge="1" parent="1" source="SMkMiiwuOo15J6uWJtSO-2" target="SMkMiiwuOo15J6uWJtSO-3">
          <mxGeometry relative="1" as="geometry">
            <mxPoint x="1820" y="510" as="sourcePoint" />
            <mxPoint x="1890" y="450" as="targetPoint" />
            <Array as="points">
              <mxPoint x="1810" y="520" />
              <mxPoint x="1845" y="520" />
              <mxPoint x="1845" y="660" />
            </Array>
          </mxGeometry>
        </mxCell>
        <mxCell id="SMkMiiwuOo15J6uWJtSO-21" value="1" style="edgeLabel;html=1;align=center;verticalAlign=middle;resizable=0;points=[];" vertex="1" connectable="0" parent="SMkMiiwuOo15J6uWJtSO-20">
          <mxGeometry x="-0.82" relative="1" as="geometry">
            <mxPoint y="-10" as="offset" />
          </mxGeometry>
        </mxCell>
        <mxCell id="SMkMiiwuOo15J6uWJtSO-22" value="1" style="edgeLabel;html=1;align=center;verticalAlign=middle;resizable=0;points=[];" vertex="1" connectable="0" parent="SMkMiiwuOo15J6uWJtSO-20">
          <mxGeometry x="0.72" y="-1" relative="1" as="geometry">
            <mxPoint y="-11" as="offset" />
          </mxGeometry>
        </mxCell>
        <mxCell id="SMkMiiwuOo15J6uWJtSO-23" style="edgeStyle=orthogonalEdgeStyle;rounded=0;orthogonalLoop=1;jettySize=auto;html=1;exitX=1;exitY=0.5;exitDx=0;exitDy=0;entryX=0;entryY=0.5;entryDx=0;entryDy=0;endArrow=none;endFill=0;" edge="1" parent="1" source="SMkMiiwuOo15J6uWJtSO-3" target="SMkMiiwuOo15J6uWJtSO-5">
          <mxGeometry relative="1" as="geometry">
            <mxPoint x="1820" y="550" as="sourcePoint" />
            <mxPoint x="1890" y="670" as="targetPoint" />
            <Array as="points">
              <mxPoint x="2100" y="660" />
              <mxPoint x="2100" y="660" />
            </Array>
          </mxGeometry>
        </mxCell>
        <mxCell id="SMkMiiwuOo15J6uWJtSO-24" value="1" style="edgeLabel;html=1;align=center;verticalAlign=middle;resizable=0;points=[];" vertex="1" connectable="0" parent="SMkMiiwuOo15J6uWJtSO-23">
          <mxGeometry x="-0.82" relative="1" as="geometry">
            <mxPoint y="-10" as="offset" />
          </mxGeometry>
        </mxCell>
        <mxCell id="SMkMiiwuOo15J6uWJtSO-25" value="1" style="edgeLabel;html=1;align=center;verticalAlign=middle;resizable=0;points=[];" vertex="1" connectable="0" parent="SMkMiiwuOo15J6uWJtSO-23">
          <mxGeometry x="0.72" y="-1" relative="1" as="geometry">
            <mxPoint y="-11" as="offset" />
          </mxGeometry>
        </mxCell>
        <mxCell id="SMkMiiwuOo15J6uWJtSO-26" style="edgeStyle=orthogonalEdgeStyle;rounded=0;orthogonalLoop=1;jettySize=auto;html=1;exitX=1;exitY=0.5;exitDx=0;exitDy=0;entryX=0;entryY=0.5;entryDx=0;entryDy=0;endArrow=none;endFill=0;" edge="1" parent="1" source="SMkMiiwuOo15J6uWJtSO-6" target="SMkMiiwuOo15J6uWJtSO-4">
          <mxGeometry relative="1" as="geometry">
            <mxPoint x="2056.08" y="690" as="sourcePoint" />
            <mxPoint x="2126.0800000000004" y="690" as="targetPoint" />
            <Array as="points">
              <mxPoint x="2091.08" y="500" />
              <mxPoint x="2091.08" y="500" />
            </Array>
          </mxGeometry>
        </mxCell>
        <mxCell id="SMkMiiwuOo15J6uWJtSO-27" value="1" style="edgeLabel;html=1;align=center;verticalAlign=middle;resizable=0;points=[];" vertex="1" connectable="0" parent="SMkMiiwuOo15J6uWJtSO-26">
          <mxGeometry x="-0.82" relative="1" as="geometry">
            <mxPoint y="-10" as="offset" />
          </mxGeometry>
        </mxCell>
        <mxCell id="SMkMiiwuOo15J6uWJtSO-28" value="1" style="edgeLabel;html=1;align=center;verticalAlign=middle;resizable=0;points=[];" vertex="1" connectable="0" parent="SMkMiiwuOo15J6uWJtSO-26">
          <mxGeometry x="0.72" y="-1" relative="1" as="geometry">
            <mxPoint y="-11" as="offset" />
          </mxGeometry>
        </mxCell>
        <object label="&lt;font color=&quot;#ffffff&quot;&gt;&amp;lt;%type%&amp;gt;&lt;br&gt;%name%&lt;br&gt;%createAt%&lt;br&gt;&lt;/font&gt;" placeholders="1" type="Evidence" name="自动扣款解除通知" createAt="create_at" id="SMkMiiwuOo15J6uWJtSO-29">
          <mxCell style="rounded=1;whiteSpace=wrap;html=1;fillColor=#FF66B3;noLabel=0;comic=0;recursiveResize=1;" vertex="1" parent="1">
            <mxGeometry x="2368.2999999999997" y="450" width="170" height="100" as="geometry" />
          </mxCell>
        </object>
        <mxCell id="SMkMiiwuOo15J6uWJtSO-31" style="edgeStyle=orthogonalEdgeStyle;rounded=0;orthogonalLoop=1;jettySize=auto;html=1;exitX=1;exitY=0.5;exitDx=0;exitDy=0;entryX=0;entryY=0.5;entryDx=0;entryDy=0;endArrow=none;endFill=0;" edge="1" parent="1" source="SMkMiiwuOo15J6uWJtSO-4" target="SMkMiiwuOo15J6uWJtSO-29">
          <mxGeometry relative="1" as="geometry">
            <mxPoint x="1776.08" y="570" as="sourcePoint" />
            <mxPoint x="1876.08" y="570" as="targetPoint" />
            <Array as="points">
              <mxPoint x="2296.08" y="500" />
              <mxPoint x="2296.08" y="500" />
            </Array>
          </mxGeometry>
        </mxCell>
        <mxCell id="SMkMiiwuOo15J6uWJtSO-32" value="1" style="edgeLabel;html=1;align=center;verticalAlign=middle;resizable=0;points=[];" vertex="1" connectable="0" parent="SMkMiiwuOo15J6uWJtSO-31">
          <mxGeometry x="-0.82" relative="1" as="geometry">
            <mxPoint y="-10" as="offset" />
          </mxGeometry>
        </mxCell>
        <mxCell id="SMkMiiwuOo15J6uWJtSO-33" value="1" style="edgeLabel;html=1;align=center;verticalAlign=middle;resizable=0;points=[];" vertex="1" connectable="0" parent="SMkMiiwuOo15J6uWJtSO-31">
          <mxGeometry x="0.72" y="-1" relative="1" as="geometry">
            <mxPoint y="-11" as="offset" />
          </mxGeometry>
        </mxCell>
        <mxCell id="SMkMiiwuOo15J6uWJtSO-37" style="edgeStyle=orthogonalEdgeStyle;rounded=0;orthogonalLoop=1;jettySize=auto;html=1;exitX=1;exitY=0.5;exitDx=0;exitDy=0;endArrow=none;endFill=0;entryX=0;entryY=0.5;entryDx=0;entryDy=0;" edge="1" parent="1" source="SMkMiiwuOo15J6uWJtSO-12" target="SMkMiiwuOo15J6uWJtSO-11">
          <mxGeometry relative="1" as="geometry">
            <mxPoint x="2120" y="860" as="sourcePoint" />
            <mxPoint x="2180" y="850" as="targetPoint" />
            <Array as="points" />
          </mxGeometry>
        </mxCell>
        <mxCell id="SMkMiiwuOo15J6uWJtSO-38" value="1" style="edgeLabel;html=1;align=center;verticalAlign=middle;resizable=0;points=[];" vertex="1" connectable="0" parent="SMkMiiwuOo15J6uWJtSO-37">
          <mxGeometry x="-0.82" relative="1" as="geometry">
            <mxPoint y="-10" as="offset" />
          </mxGeometry>
        </mxCell>
        <mxCell id="SMkMiiwuOo15J6uWJtSO-39" value="1" style="edgeLabel;html=1;align=center;verticalAlign=middle;resizable=0;points=[];" vertex="1" connectable="0" parent="SMkMiiwuOo15J6uWJtSO-37">
          <mxGeometry x="0.72" y="-1" relative="1" as="geometry">
            <mxPoint y="-11" as="offset" />
          </mxGeometry>
        </mxCell>
        <mxCell id="SMkMiiwuOo15J6uWJtSO-40" style="edgeStyle=orthogonalEdgeStyle;rounded=0;orthogonalLoop=1;jettySize=auto;html=1;exitX=0.5;exitY=1;exitDx=0;exitDy=0;endArrow=none;endFill=0;entryX=0.5;entryY=0;entryDx=0;entryDy=0;" edge="1" parent="1" source="SMkMiiwuOo15J6uWJtSO-3" target="SMkMiiwuOo15J6uWJtSO-12">
          <mxGeometry relative="1" as="geometry">
            <mxPoint x="1780" y="670" as="sourcePoint" />
            <mxPoint x="2040" y="790" as="targetPoint" />
          </mxGeometry>
        </mxCell>
        <mxCell id="SMkMiiwuOo15J6uWJtSO-41" value="1" style="edgeLabel;html=1;align=center;verticalAlign=middle;resizable=0;points=[];" vertex="1" connectable="0" parent="SMkMiiwuOo15J6uWJtSO-40">
          <mxGeometry x="-0.82" relative="1" as="geometry">
            <mxPoint y="-10" as="offset" />
          </mxGeometry>
        </mxCell>
        <mxCell id="SMkMiiwuOo15J6uWJtSO-42" value="N" style="edgeLabel;html=1;align=center;verticalAlign=middle;resizable=0;points=[];" vertex="1" connectable="0" parent="SMkMiiwuOo15J6uWJtSO-40">
          <mxGeometry x="0.72" y="-1" relative="1" as="geometry">
            <mxPoint y="-11" as="offset" />
          </mxGeometry>
        </mxCell>
        <object label="" n="1" m="*" id="SMkMiiwuOo15J6uWJtSO-43">
          <mxCell style="edgeStyle=orthogonalEdgeStyle;rounded=0;orthogonalLoop=1;jettySize=auto;html=1;exitX=0.5;exitY=1;exitDx=0;exitDy=0;endArrow=none;endFill=0;" edge="1" parent="1" source="SMkMiiwuOo15J6uWJtSO-5" target="SMkMiiwuOo15J6uWJtSO-11">
            <mxGeometry relative="1" as="geometry">
              <mxPoint x="1780" y="670" as="sourcePoint" />
              <mxPoint x="1870" y="670" as="targetPoint" />
              <Array as="points">
                <mxPoint x="2205" y="780" />
                <mxPoint x="2205" y="780" />
              </Array>
            </mxGeometry>
          </mxCell>
        </object>
        <mxCell id="SMkMiiwuOo15J6uWJtSO-44" value="1" style="edgeLabel;html=1;align=center;verticalAlign=middle;resizable=0;points=[];" vertex="1" connectable="0" parent="SMkMiiwuOo15J6uWJtSO-43">
          <mxGeometry x="0.1538" y="3" relative="1" as="geometry">
            <mxPoint x="-8" y="-32" as="offset" />
          </mxGeometry>
        </mxCell>
        <mxCell id="SMkMiiwuOo15J6uWJtSO-45" value="N" style="edgeLabel;html=1;align=center;verticalAlign=middle;resizable=0;points=[];" vertex="1" connectable="0" parent="SMkMiiwuOo15J6uWJtSO-43">
          <mxGeometry x="0.1538" relative="1" as="geometry">
            <mxPoint x="5" y="28" as="offset" />
          </mxGeometry>
        </mxCell>
        <object label="&lt;font color=&quot;#ffffff&quot;&gt;&amp;lt;%type%&amp;gt;&lt;br&gt;&lt;br&gt;&lt;b&gt;%name%&lt;/b&gt;&lt;br&gt;&lt;/font&gt;" placeholders="1" type="Party" name="房产经纪人用户" id="SMkMiiwuOo15J6uWJtSO-47">
          <mxCell style="rounded=1;whiteSpace=wrap;html=1;noLabel=0;comic=0;recursiveResize=1;fillColor=#00994D;" vertex="1" parent="1">
            <mxGeometry x="1130" y="750" width="170" height="100" as="geometry" />
          </mxCell>
        </object>
        <object label="&lt;font color=&quot;#ffffff&quot;&gt;&amp;lt;%type%&amp;gt;&lt;br&gt;&lt;br&gt;&lt;b&gt;%name%&lt;/b&gt;&lt;br&gt;&lt;/font&gt;" placeholders="1" type="Party" name="思沃租房平台" id="SMkMiiwuOo15J6uWJtSO-48">
          <mxCell style="rounded=1;whiteSpace=wrap;html=1;noLabel=0;comic=0;recursiveResize=1;fillColor=#00994D;" vertex="1" parent="1">
            <mxGeometry x="1640" y="760" width="170" height="100" as="geometry" />
          </mxCell>
        </object>
        <object label="&lt;font color=&quot;#ffffff&quot;&gt;&amp;lt;%type%&amp;gt;&lt;br&gt;&lt;br&gt;&lt;b&gt;%name%&lt;/b&gt;&lt;br&gt;&lt;/font&gt;" placeholders="1" type="party" name="买家" id="SMkMiiwuOo15J6uWJtSO-49">
          <mxCell style="rounded=1;whiteSpace=wrap;html=1;noLabel=0;comic=0;recursiveResize=1;fillColor=#FFA033;" vertex="1" parent="1">
            <mxGeometry x="1130" y="600" width="170" height="100" as="geometry" />
          </mxCell>
        </object>
        <object label="&lt;font color=&quot;#ffffff&quot;&gt;&amp;lt;%type%&amp;gt;&lt;br&gt;&lt;br&gt;&lt;b&gt;%name%&lt;/b&gt;&lt;br&gt;&lt;/font&gt;" placeholders="1" type="party" name="卖家" id="SMkMiiwuOo15J6uWJtSO-50">
          <mxCell style="rounded=1;whiteSpace=wrap;html=1;noLabel=0;comic=0;recursiveResize=1;fillColor=#FFA033;" vertex="1" parent="1">
            <mxGeometry x="1640" y="600" width="170" height="100" as="geometry" />
          </mxCell>
        </object>
        <object label="&lt;font color=&quot;#ffffff&quot;&gt;&amp;lt;%type%&amp;gt;&lt;br&gt;%name%&lt;br&gt;%createAt%&lt;br&gt;&lt;/font&gt;" placeholders="1" type="Evidence" name="月账单" createAt="create_at" id="SMkMiiwuOo15J6uWJtSO-51">
          <mxCell style="rounded=1;whiteSpace=wrap;html=1;fillColor=#FF66B3;noLabel=0;comic=0;recursiveResize=1;" vertex="1" parent="1">
            <mxGeometry x="2380" y="620" width="170" height="100" as="geometry" />
          </mxCell>
        </object>
        <mxCell id="SMkMiiwuOo15J6uWJtSO-52" style="edgeStyle=orthogonalEdgeStyle;rounded=0;orthogonalLoop=1;jettySize=auto;html=1;endArrow=none;endFill=0;entryX=0;entryY=0.5;entryDx=0;entryDy=0;exitX=1;exitY=0.5;exitDx=0;exitDy=0;" edge="1" parent="1" source="SMkMiiwuOo15J6uWJtSO-5" target="SMkMiiwuOo15J6uWJtSO-51">
          <mxGeometry relative="1" as="geometry">
            <mxPoint x="1960" y="700" as="sourcePoint" />
            <mxPoint x="1975" y="810" as="targetPoint" />
            <Array as="points">
              <mxPoint x="2290" y="670" />
              <mxPoint x="2360" y="670" />
            </Array>
          </mxGeometry>
        </mxCell>
        <mxCell id="SMkMiiwuOo15J6uWJtSO-53" value="1" style="edgeLabel;html=1;align=center;verticalAlign=middle;resizable=0;points=[];" vertex="1" connectable="0" parent="SMkMiiwuOo15J6uWJtSO-52">
          <mxGeometry x="-0.82" relative="1" as="geometry">
            <mxPoint y="-10" as="offset" />
          </mxGeometry>
        </mxCell>
        <mxCell id="SMkMiiwuOo15J6uWJtSO-54" value="N" style="edgeLabel;html=1;align=center;verticalAlign=middle;resizable=0;points=[];" vertex="1" connectable="0" parent="SMkMiiwuOo15J6uWJtSO-52">
          <mxGeometry x="0.72" y="-1" relative="1" as="geometry">
            <mxPoint y="-11" as="offset" />
          </mxGeometry>
        </mxCell>
        <object label="&lt;font color=&quot;#ffffff&quot;&gt;&amp;lt;%type%&amp;gt;&lt;br&gt;%name%&lt;br&gt;%createAt%&lt;br&gt;%expireAt%&lt;br&gt;&lt;/font&gt;" placeholders="1" type="Fulfilment" name="开通/绑定预充值账户" createAt="create_at" expireAt="expire_at" id="SMkMiiwuOo15J6uWJtSO-55">
          <mxCell style="rounded=1;whiteSpace=wrap;html=1;fillColor=#FF66B3;noLabel=0;comic=0;recursiveResize=1;" vertex="1" parent="1">
            <mxGeometry x="1880" y="290" width="170" height="100" as="geometry" />
          </mxCell>
        </object>
        <mxCell id="SMkMiiwuOo15J6uWJtSO-56" style="edgeStyle=orthogonalEdgeStyle;rounded=0;orthogonalLoop=1;jettySize=auto;html=1;entryX=0;entryY=0.5;entryDx=0;entryDy=0;endArrow=none;endFill=0;" edge="1" parent="1" target="SMkMiiwuOo15J6uWJtSO-55">
          <mxGeometry relative="1" as="geometry">
            <mxPoint x="1810" y="500" as="sourcePoint" />
            <mxPoint x="1870" y="500" as="targetPoint" />
            <Array as="points">
              <mxPoint x="1810" y="480" />
              <mxPoint x="1850" y="480" />
              <mxPoint x="1850" y="340" />
            </Array>
          </mxGeometry>
        </mxCell>
        <mxCell id="SMkMiiwuOo15J6uWJtSO-57" value="1" style="edgeLabel;html=1;align=center;verticalAlign=middle;resizable=0;points=[];" vertex="1" connectable="0" parent="SMkMiiwuOo15J6uWJtSO-56">
          <mxGeometry x="-0.82" relative="1" as="geometry">
            <mxPoint y="-10" as="offset" />
          </mxGeometry>
        </mxCell>
        <mxCell id="SMkMiiwuOo15J6uWJtSO-58" value="1" style="edgeLabel;html=1;align=center;verticalAlign=middle;resizable=0;points=[];" vertex="1" connectable="0" parent="SMkMiiwuOo15J6uWJtSO-56">
          <mxGeometry x="0.72" y="-1" relative="1" as="geometry">
            <mxPoint y="-11" as="offset" />
          </mxGeometry>
        </mxCell>
        <object label="&lt;font color=&quot;#ffffff&quot;&gt;&amp;lt;%type%&amp;gt;&lt;br&gt;%name%&lt;br&gt;%createAt%&lt;br&gt;&lt;/font&gt;" placeholders="1" type="Fulfilment" name="预充值帐户绑定成功" createAt="create_at" id="SMkMiiwuOo15J6uWJtSO-59">
          <mxCell style="rounded=1;whiteSpace=wrap;html=1;fillColor=#FF66B3;noLabel=0;comic=0;recursiveResize=1;" vertex="1" parent="1">
            <mxGeometry x="2120" y="290" width="170" height="100" as="geometry" />
          </mxCell>
        </object>
        <mxCell id="SMkMiiwuOo15J6uWJtSO-60" style="edgeStyle=orthogonalEdgeStyle;rounded=0;orthogonalLoop=1;jettySize=auto;html=1;exitX=1;exitY=0.5;exitDx=0;exitDy=0;entryX=0;entryY=0.5;entryDx=0;entryDy=0;endArrow=none;endFill=0;" edge="1" parent="1" source="SMkMiiwuOo15J6uWJtSO-55" target="SMkMiiwuOo15J6uWJtSO-59">
          <mxGeometry relative="1" as="geometry">
            <mxPoint x="1890" y="400" as="sourcePoint" />
            <mxPoint x="1990" y="400" as="targetPoint" />
          </mxGeometry>
        </mxCell>
        <mxCell id="SMkMiiwuOo15J6uWJtSO-61" value="1" style="edgeLabel;html=1;align=center;verticalAlign=middle;resizable=0;points=[];" vertex="1" connectable="0" parent="SMkMiiwuOo15J6uWJtSO-60">
          <mxGeometry x="-0.82" relative="1" as="geometry">
            <mxPoint y="-10" as="offset" />
          </mxGeometry>
        </mxCell>
        <mxCell id="SMkMiiwuOo15J6uWJtSO-62" value="1" style="edgeLabel;html=1;align=center;verticalAlign=middle;resizable=0;points=[];" vertex="1" connectable="0" parent="SMkMiiwuOo15J6uWJtSO-60">
          <mxGeometry x="0.72" y="-1" relative="1" as="geometry">
            <mxPoint y="-11" as="offset" />
          </mxGeometry>
        </mxCell>
        <object label="&lt;font color=&quot;#ffffff&quot;&gt;&amp;lt;%type%&amp;gt;&lt;br&gt;%name%&lt;br&gt;%createAt%&lt;br&gt;&lt;/font&gt;" placeholders="1" type="RFP" name="Promotion Service Apply" createAt="create_at" id="SMkMiiwuOo15J6uWJtSO-63">
          <mxCell style="rounded=1;whiteSpace=wrap;html=1;fillColor=#FF66B3;noLabel=0;comic=0;recursiveResize=1;" vertex="1" parent="1">
            <mxGeometry x="1130" y="450" width="170" height="100" as="geometry" />
          </mxCell>
        </object>
        <mxCell id="SMkMiiwuOo15J6uWJtSO-65" style="edgeStyle=orthogonalEdgeStyle;rounded=0;orthogonalLoop=1;jettySize=auto;html=1;exitX=1;exitY=0.5;exitDx=0;exitDy=0;endArrow=none;endFill=0;" edge="1" parent="1" source="SMkMiiwuOo15J6uWJtSO-63">
          <mxGeometry relative="1" as="geometry">
            <mxPoint x="1620" y="570" as="sourcePoint" />
            <mxPoint x="1390" y="500" as="targetPoint" />
          </mxGeometry>
        </mxCell>
        <mxCell id="SMkMiiwuOo15J6uWJtSO-66" value="1" style="edgeLabel;html=1;align=center;verticalAlign=middle;resizable=0;points=[];" vertex="1" connectable="0" parent="SMkMiiwuOo15J6uWJtSO-65">
          <mxGeometry x="-0.82" relative="1" as="geometry">
            <mxPoint y="-10" as="offset" />
          </mxGeometry>
        </mxCell>
        <mxCell id="SMkMiiwuOo15J6uWJtSO-67" value="1" style="edgeLabel;html=1;align=center;verticalAlign=middle;resizable=0;points=[];" vertex="1" connectable="0" parent="SMkMiiwuOo15J6uWJtSO-65">
          <mxGeometry x="0.72" y="-1" relative="1" as="geometry">
            <mxPoint y="-11" as="offset" />
          </mxGeometry>
        </mxCell>
        <mxCell id="SMkMiiwuOo15J6uWJtSO-69" style="edgeStyle=none;rounded=0;orthogonalLoop=1;jettySize=auto;html=1;exitX=0.5;exitY=0;exitDx=0;exitDy=0;endArrow=block;endFill=0;dashed=1;entryX=0.5;entryY=1;entryDx=0;entryDy=0;" edge="1" parent="1" source="SMkMiiwuOo15J6uWJtSO-47" target="SMkMiiwuOo15J6uWJtSO-49">
          <mxGeometry relative="1" as="geometry">
            <mxPoint x="1630" y="570" as="sourcePoint" />
            <mxPoint x="1700" y="570" as="targetPoint" />
          </mxGeometry>
        </mxCell>
        <object label="" n="1" m="*" id="SMkMiiwuOo15J6uWJtSO-70">
          <mxCell style="edgeStyle=orthogonalEdgeStyle;rounded=0;orthogonalLoop=1;jettySize=auto;html=1;endArrow=none;endFill=0;entryX=0.5;entryY=1;entryDx=0;entryDy=0;" edge="1" parent="1" source="SMkMiiwuOo15J6uWJtSO-49" target="SMkMiiwuOo15J6uWJtSO-63">
            <mxGeometry relative="1" as="geometry">
              <mxPoint x="1620" y="570" as="sourcePoint" />
              <mxPoint x="1710" y="570" as="targetPoint" />
            </mxGeometry>
          </mxCell>
        </object>
        <mxCell id="SMkMiiwuOo15J6uWJtSO-71" value="1" style="edgeLabel;html=1;align=center;verticalAlign=middle;resizable=0;points=[];" vertex="1" connectable="0" parent="SMkMiiwuOo15J6uWJtSO-70">
          <mxGeometry x="0.1538" y="3" relative="1" as="geometry">
            <mxPoint x="-2" y="19" as="offset" />
          </mxGeometry>
        </mxCell>
        <mxCell id="SMkMiiwuOo15J6uWJtSO-72" value="N" style="edgeLabel;html=1;align=center;verticalAlign=middle;resizable=0;points=[];" vertex="1" connectable="0" parent="SMkMiiwuOo15J6uWJtSO-70">
          <mxGeometry x="0.1538" relative="1" as="geometry">
            <mxPoint x="5" y="-10" as="offset" />
          </mxGeometry>
        </mxCell>
        <mxCell id="SMkMiiwuOo15J6uWJtSO-73" style="edgeStyle=none;rounded=0;orthogonalLoop=1;jettySize=auto;html=1;exitX=0.5;exitY=0;exitDx=0;exitDy=0;endArrow=block;endFill=0;dashed=1;" edge="1" parent="1" source="SMkMiiwuOo15J6uWJtSO-48" target="SMkMiiwuOo15J6uWJtSO-50">
          <mxGeometry relative="1" as="geometry">
            <mxPoint x="1724.4400000000005" y="940" as="sourcePoint" />
            <mxPoint x="1724" y="890" as="targetPoint" />
          </mxGeometry>
        </mxCell>
        <object label="" n="1" m="*" id="SMkMiiwuOo15J6uWJtSO-74">
          <mxCell style="edgeStyle=orthogonalEdgeStyle;rounded=0;orthogonalLoop=1;jettySize=auto;html=1;exitX=0.5;exitY=0;exitDx=0;exitDy=0;endArrow=none;endFill=0;entryX=0.5;entryY=1;entryDx=0;entryDy=0;" edge="1" parent="1" source="SMkMiiwuOo15J6uWJtSO-50" target="SMkMiiwuOo15J6uWJtSO-2">
            <mxGeometry relative="1" as="geometry">
              <mxPoint x="1620" y="750" as="sourcePoint" />
              <mxPoint x="1710" y="750" as="targetPoint" />
            </mxGeometry>
          </mxCell>
        </object>
        <mxCell id="SMkMiiwuOo15J6uWJtSO-75" value="1" style="edgeLabel;html=1;align=center;verticalAlign=middle;resizable=0;points=[];" vertex="1" connectable="0" parent="SMkMiiwuOo15J6uWJtSO-74">
          <mxGeometry x="0.1538" y="3" relative="1" as="geometry">
            <mxPoint x="-2" y="19" as="offset" />
          </mxGeometry>
        </mxCell>
        <mxCell id="SMkMiiwuOo15J6uWJtSO-76" value="N" style="edgeLabel;html=1;align=center;verticalAlign=middle;resizable=0;points=[];" vertex="1" connectable="0" parent="SMkMiiwuOo15J6uWJtSO-74">
          <mxGeometry x="0.1538" relative="1" as="geometry">
            <mxPoint x="15" y="-1" as="offset" />
          </mxGeometry>
        </mxCell>
        <object label="&lt;font color=&quot;#ffffff&quot;&gt;&amp;lt;%type%&amp;gt;&lt;br&gt;%name%&lt;br&gt;%createAt%&lt;br&gt;&lt;/font&gt;" placeholders="1" type="Evidence" name="充值凭证" createAt="create_at" id="SMkMiiwuOo15J6uWJtSO-77">
          <mxCell style="rounded=1;whiteSpace=wrap;html=1;fillColor=#FF66B3;noLabel=0;comic=0;recursiveResize=1;" vertex="1" parent="1">
            <mxGeometry x="2360" y="290" width="170" height="100" as="geometry" />
          </mxCell>
        </object>
        <mxCell id="SMkMiiwuOo15J6uWJtSO-78" style="edgeStyle=orthogonalEdgeStyle;rounded=0;orthogonalLoop=1;jettySize=auto;html=1;endArrow=none;endFill=0;" edge="1" parent="1" source="SMkMiiwuOo15J6uWJtSO-59" target="SMkMiiwuOo15J6uWJtSO-77">
          <mxGeometry relative="1" as="geometry">
            <mxPoint x="2290" y="350" as="sourcePoint" />
            <mxPoint x="2360" y="350" as="targetPoint" />
            <Array as="points" />
          </mxGeometry>
        </mxCell>
        <mxCell id="SMkMiiwuOo15J6uWJtSO-79" value="1" style="edgeLabel;html=1;align=center;verticalAlign=middle;resizable=0;points=[];" vertex="1" connectable="0" parent="SMkMiiwuOo15J6uWJtSO-78">
          <mxGeometry x="-0.82" relative="1" as="geometry">
            <mxPoint y="-10" as="offset" />
          </mxGeometry>
        </mxCell>
        <mxCell id="SMkMiiwuOo15J6uWJtSO-80" value="N" style="edgeLabel;html=1;align=center;verticalAlign=middle;resizable=0;points=[];" vertex="1" connectable="0" parent="SMkMiiwuOo15J6uWJtSO-78">
          <mxGeometry x="0.72" y="-1" relative="1" as="geometry">
            <mxPoint y="-11" as="offset" />
          </mxGeometry>
        </mxCell>
        <object label="&lt;font color=&quot;#ffffff&quot;&gt;&amp;lt;%type%&amp;gt;&lt;br&gt;%name%&lt;br&gt;%createAt%&lt;br&gt;&lt;/font&gt;" placeholders="1" type="Evidence" name="开户单" createAt="create_at" id="SMkMiiwuOo15J6uWJtSO-81">
          <mxCell style="rounded=1;whiteSpace=wrap;html=1;fillColor=#FF66B3;noLabel=0;comic=0;recursiveResize=1;" vertex="1" parent="1">
            <mxGeometry x="2360" y="180" width="170" height="100" as="geometry" />
          </mxCell>
        </object>
        <object label="" n="1" m="*" id="SMkMiiwuOo15J6uWJtSO-82">
          <mxCell style="edgeStyle=orthogonalEdgeStyle;rounded=0;orthogonalLoop=1;jettySize=auto;html=1;endArrow=none;endFill=0;entryX=0;entryY=0.5;entryDx=0;entryDy=0;exitX=0.5;exitY=0;exitDx=0;exitDy=0;" edge="1" parent="1" source="SMkMiiwuOo15J6uWJtSO-59" target="SMkMiiwuOo15J6uWJtSO-81">
            <mxGeometry relative="1" as="geometry">
              <mxPoint x="2180.0000000000005" y="470" as="sourcePoint" />
              <mxPoint x="2180.0000000000005" y="420" as="targetPoint" />
              <Array as="points">
                <mxPoint x="2204.8" y="250" />
                <mxPoint x="2359.8" y="250" />
              </Array>
            </mxGeometry>
          </mxCell>
        </object>
        <mxCell id="SMkMiiwuOo15J6uWJtSO-83" value="1" style="edgeLabel;html=1;align=center;verticalAlign=middle;resizable=0;points=[];" vertex="1" connectable="0" parent="SMkMiiwuOo15J6uWJtSO-82">
          <mxGeometry x="0.1538" y="3" relative="1" as="geometry">
            <mxPoint x="-82" y="23" as="offset" />
          </mxGeometry>
        </mxCell>
        <mxCell id="SMkMiiwuOo15J6uWJtSO-84" value="1" style="edgeLabel;html=1;align=center;verticalAlign=middle;resizable=0;points=[];" vertex="1" connectable="0" parent="SMkMiiwuOo15J6uWJtSO-82">
          <mxGeometry x="0.1538" relative="1" as="geometry">
            <mxPoint x="48" as="offset" />
          </mxGeometry>
        </mxCell>
        <object label="&lt;font color=&quot;#ffffff&quot;&gt;&amp;lt;%type%&amp;gt;&lt;br&gt;%name%&lt;br&gt;%createAt%&lt;br&gt;%price%&lt;br&gt;&lt;/font&gt;" placeholders="1" type="Proposal" name="Promotion Service Charges" createAt="create_at" price="price" id="SMkMiiwuOo15J6uWJtSO-85">
          <mxCell style="rounded=1;whiteSpace=wrap;html=1;fillColor=#FF66B3;noLabel=0;comic=0;recursiveResize=1;" vertex="1" parent="1">
            <mxGeometry x="1330" y="1440" width="170" height="100" as="geometry" />
          </mxCell>
        </object>
        <object label="&lt;font color=&quot;#ffffff&quot;&gt;&amp;lt;%type%&amp;gt;&lt;br&gt;%name%&lt;br&gt;%createAt%&lt;br&gt;&lt;/font&gt;" placeholders="1" type="Contract" name="Promotion Service" createAt="create_at" id="SMkMiiwuOo15J6uWJtSO-86">
          <mxCell style="rounded=1;whiteSpace=wrap;html=1;fillColor=#FF66B3;noLabel=0;comic=0;recursiveResize=1;" vertex="1" parent="1">
            <mxGeometry x="1580" y="1440" width="170" height="100" as="geometry" />
          </mxCell>
        </object>
        <object label="&lt;font color=&quot;#ffffff&quot;&gt;&amp;lt;%type%&amp;gt;&lt;br&gt;%name%&lt;br&gt;%createAt%&lt;br&gt;%expireAt%&lt;br&gt;&lt;/font&gt;" placeholders="1" type="Fulfilment" name="Promotion Request" createAt="create_at" expireAt="expire_at" id="SMkMiiwuOo15J6uWJtSO-87">
          <mxCell style="rounded=1;whiteSpace=wrap;html=1;fillColor=#FF66B3;noLabel=0;comic=0;recursiveResize=1;" vertex="1" parent="1">
            <mxGeometry x="1940" y="1730" width="170" height="100" as="geometry" />
          </mxCell>
        </object>
        <object label="&lt;font color=&quot;#ffffff&quot;&gt;&amp;lt;%type%&amp;gt;&lt;br&gt;%name%&lt;br&gt;%createAt%&lt;br&gt;&lt;/font&gt;&lt;span style=&quot;color: rgb(255 , 255 , 255)&quot;&gt;%clicks%&lt;/span&gt;&lt;font color=&quot;#ffffff&quot;&gt;&lt;br&gt;&lt;/font&gt;" placeholders="1" type="3rd System" name="ADX Data" createAt="create_at" clicks="clicks" id="SMkMiiwuOo15J6uWJtSO-92">
          <mxCell style="rounded=1;whiteSpace=wrap;html=1;fillColor=#FFA033;noLabel=0;comic=0;recursiveResize=1;" vertex="1" parent="1">
            <mxGeometry x="2439.03" y="1730" width="170" height="100" as="geometry" />
          </mxCell>
        </object>
        <mxCell id="SMkMiiwuOo15J6uWJtSO-93" style="edgeStyle=orthogonalEdgeStyle;rounded=0;orthogonalLoop=1;jettySize=auto;html=1;exitX=1;exitY=0.5;exitDx=0;exitDy=0;entryX=0;entryY=0.5;entryDx=0;entryDy=0;endArrow=none;endFill=0;" edge="1" parent="1" source="SMkMiiwuOo15J6uWJtSO-85" target="SMkMiiwuOo15J6uWJtSO-86">
          <mxGeometry relative="1" as="geometry">
            <mxPoint x="1610" y="1500" as="sourcePoint" />
            <mxPoint x="1710" y="1500" as="targetPoint" />
          </mxGeometry>
        </mxCell>
        <mxCell id="SMkMiiwuOo15J6uWJtSO-94" value="1" style="edgeLabel;html=1;align=center;verticalAlign=middle;resizable=0;points=[];" vertex="1" connectable="0" parent="SMkMiiwuOo15J6uWJtSO-93">
          <mxGeometry x="-0.82" relative="1" as="geometry">
            <mxPoint y="-10" as="offset" />
          </mxGeometry>
        </mxCell>
        <mxCell id="SMkMiiwuOo15J6uWJtSO-95" value="1" style="edgeLabel;html=1;align=center;verticalAlign=middle;resizable=0;points=[];" vertex="1" connectable="0" parent="SMkMiiwuOo15J6uWJtSO-93">
          <mxGeometry x="0.72" y="-1" relative="1" as="geometry">
            <mxPoint y="-11" as="offset" />
          </mxGeometry>
        </mxCell>
        <mxCell id="SMkMiiwuOo15J6uWJtSO-99" style="edgeStyle=orthogonalEdgeStyle;rounded=0;orthogonalLoop=1;jettySize=auto;html=1;entryX=0;entryY=0.5;entryDx=0;entryDy=0;endArrow=none;endFill=0;exitX=1;exitY=0.5;exitDx=0;exitDy=0;" edge="1" parent="1" source="SMkMiiwuOo15J6uWJtSO-86" target="SMkMiiwuOo15J6uWJtSO-87">
          <mxGeometry relative="1" as="geometry">
            <mxPoint x="1810" y="1670" as="sourcePoint" />
            <mxPoint x="1929.03" y="1710" as="targetPoint" />
            <Array as="points">
              <mxPoint x="1820" y="1490" />
              <mxPoint x="1820" y="1780" />
            </Array>
          </mxGeometry>
        </mxCell>
        <mxCell id="SMkMiiwuOo15J6uWJtSO-100" value="1" style="edgeLabel;html=1;align=center;verticalAlign=middle;resizable=0;points=[];" vertex="1" connectable="0" parent="SMkMiiwuOo15J6uWJtSO-99">
          <mxGeometry x="-0.82" relative="1" as="geometry">
            <mxPoint y="-10" as="offset" />
          </mxGeometry>
        </mxCell>
        <mxCell id="SMkMiiwuOo15J6uWJtSO-101" value="1" style="edgeLabel;html=1;align=center;verticalAlign=middle;resizable=0;points=[];" vertex="1" connectable="0" parent="SMkMiiwuOo15J6uWJtSO-99">
          <mxGeometry x="0.72" y="-1" relative="1" as="geometry">
            <mxPoint y="-11" as="offset" />
          </mxGeometry>
        </mxCell>
        <mxCell id="SMkMiiwuOo15J6uWJtSO-115" style="edgeStyle=orthogonalEdgeStyle;rounded=0;orthogonalLoop=1;jettySize=auto;html=1;exitX=1;exitY=0.5;exitDx=0;exitDy=0;endArrow=none;endFill=0;entryX=0;entryY=0.5;entryDx=0;entryDy=0;" edge="1" parent="1" source="SMkMiiwuOo15J6uWJtSO-87" target="SMkMiiwuOo15J6uWJtSO-157">
          <mxGeometry relative="1" as="geometry">
            <mxPoint x="1840" y="1790" as="sourcePoint" />
            <mxPoint x="2129.03" y="1910" as="targetPoint" />
            <Array as="points">
              <mxPoint x="2139.03" y="1780" />
              <mxPoint x="2139.03" y="1780" />
            </Array>
          </mxGeometry>
        </mxCell>
        <mxCell id="SMkMiiwuOo15J6uWJtSO-116" value="1" style="edgeLabel;html=1;align=center;verticalAlign=middle;resizable=0;points=[];" vertex="1" connectable="0" parent="SMkMiiwuOo15J6uWJtSO-115">
          <mxGeometry x="-0.82" relative="1" as="geometry">
            <mxPoint y="-10" as="offset" />
          </mxGeometry>
        </mxCell>
        <mxCell id="SMkMiiwuOo15J6uWJtSO-117" value="1" style="edgeLabel;html=1;align=center;verticalAlign=middle;resizable=0;points=[];" vertex="1" connectable="0" parent="SMkMiiwuOo15J6uWJtSO-115">
          <mxGeometry x="0.72" y="-1" relative="1" as="geometry">
            <mxPoint y="-11" as="offset" />
          </mxGeometry>
        </mxCell>
        <object label="&lt;font color=&quot;#ffffff&quot;&gt;&amp;lt;%type%&amp;gt;&lt;br&gt;&lt;br&gt;&lt;b&gt;%name%&lt;/b&gt;&lt;br&gt;&lt;/font&gt;" placeholders="1" type="Party" name="Registered User" id="SMkMiiwuOo15J6uWJtSO-121">
          <mxCell style="rounded=1;whiteSpace=wrap;html=1;noLabel=0;comic=0;recursiveResize=1;fillColor=#00994D;" vertex="1" parent="1">
            <mxGeometry x="1070" y="1740" width="170" height="100" as="geometry" />
          </mxCell>
        </object>
        <object label="&lt;font color=&quot;#ffffff&quot;&gt;&amp;lt;%type%&amp;gt;&lt;br&gt;&lt;br&gt;&lt;b&gt;%name%&lt;/b&gt;&lt;br&gt;&lt;/font&gt;" placeholders="1" type="Party" name="TW Renting Information Platform" id="SMkMiiwuOo15J6uWJtSO-122">
          <mxCell style="rounded=1;whiteSpace=wrap;html=1;noLabel=0;comic=0;recursiveResize=1;fillColor=#00994D;" vertex="1" parent="1">
            <mxGeometry x="1580" y="1750" width="170" height="100" as="geometry" />
          </mxCell>
        </object>
        <object label="&lt;font color=&quot;#ffffff&quot;&gt;&amp;lt;%type%&amp;gt;&lt;br&gt;&lt;br&gt;&lt;b&gt;%name%&lt;/b&gt;&lt;br&gt;&lt;/font&gt;" placeholders="1" type="Role" name="Consumer" id="SMkMiiwuOo15J6uWJtSO-123">
          <mxCell style="rounded=1;whiteSpace=wrap;html=1;noLabel=0;comic=0;recursiveResize=1;fillColor=#FFA033;" vertex="1" parent="1">
            <mxGeometry x="1070" y="1590" width="170" height="100" as="geometry" />
          </mxCell>
        </object>
        <object label="&lt;font color=&quot;#ffffff&quot;&gt;&amp;lt;%type%&amp;gt;&lt;br&gt;&lt;br&gt;&lt;b&gt;%name%&lt;/b&gt;&lt;br&gt;&lt;/font&gt;" placeholders="1" type="Role" name="Provider" id="SMkMiiwuOo15J6uWJtSO-124">
          <mxCell style="rounded=1;whiteSpace=wrap;html=1;noLabel=0;comic=0;recursiveResize=1;fillColor=#FFA033;" vertex="1" parent="1">
            <mxGeometry x="1580" y="1590" width="170" height="100" as="geometry" />
          </mxCell>
        </object>
        <object label="&lt;font color=&quot;#ffffff&quot;&gt;&amp;lt;%type%&amp;gt;&lt;br&gt;%name%&lt;br&gt;%createAt%&lt;br&gt;%amount%&lt;br&gt;&lt;/font&gt;" placeholders="1" type="Fulfilment" name="Charge Payment Confirmation" createAt="create_at" amount="amount" id="SMkMiiwuOo15J6uWJtSO-133">
          <mxCell style="rounded=1;whiteSpace=wrap;html=1;fillColor=#FFA033;noLabel=0;comic=0;recursiveResize=1;" vertex="1" parent="1">
            <mxGeometry x="2159.03" y="1550" width="170" height="100" as="geometry" />
          </mxCell>
        </object>
        <mxCell id="SMkMiiwuOo15J6uWJtSO-134" style="edgeStyle=orthogonalEdgeStyle;rounded=0;orthogonalLoop=1;jettySize=auto;html=1;exitX=1;exitY=0.5;exitDx=0;exitDy=0;entryX=0;entryY=0.5;entryDx=0;entryDy=0;endArrow=none;endFill=0;" edge="1" parent="1" source="SMkMiiwuOo15J6uWJtSO-161" target="SMkMiiwuOo15J6uWJtSO-133">
          <mxGeometry relative="1" as="geometry">
            <mxPoint x="2089.03" y="1600" as="sourcePoint" />
            <mxPoint x="2029.03" y="1660" as="targetPoint" />
          </mxGeometry>
        </mxCell>
        <mxCell id="SMkMiiwuOo15J6uWJtSO-135" value="1" style="edgeLabel;html=1;align=center;verticalAlign=middle;resizable=0;points=[];" vertex="1" connectable="0" parent="SMkMiiwuOo15J6uWJtSO-134">
          <mxGeometry x="-0.82" relative="1" as="geometry">
            <mxPoint y="-10" as="offset" />
          </mxGeometry>
        </mxCell>
        <mxCell id="SMkMiiwuOo15J6uWJtSO-136" value="1" style="edgeLabel;html=1;align=center;verticalAlign=middle;resizable=0;points=[];" vertex="1" connectable="0" parent="SMkMiiwuOo15J6uWJtSO-134">
          <mxGeometry x="0.72" y="-1" relative="1" as="geometry">
            <mxPoint y="-11" as="offset" />
          </mxGeometry>
        </mxCell>
        <object label="&lt;font color=&quot;#ffffff&quot;&gt;&amp;lt;%type%&amp;gt;&lt;br&gt;%name%&lt;br&gt;%createAt%&lt;br&gt;&lt;/font&gt;" placeholders="1" type="RFP" name="Promotion Service Apply" createAt="create_at" id="SMkMiiwuOo15J6uWJtSO-137">
          <mxCell style="rounded=1;whiteSpace=wrap;html=1;fillColor=#FF66B3;noLabel=0;comic=0;recursiveResize=1;" vertex="1" parent="1">
            <mxGeometry x="1070" y="1440" width="170" height="100" as="geometry" />
          </mxCell>
        </object>
        <mxCell id="SMkMiiwuOo15J6uWJtSO-138" style="edgeStyle=orthogonalEdgeStyle;rounded=0;orthogonalLoop=1;jettySize=auto;html=1;exitX=1;exitY=0.5;exitDx=0;exitDy=0;endArrow=none;endFill=0;" edge="1" parent="1" source="SMkMiiwuOo15J6uWJtSO-137">
          <mxGeometry relative="1" as="geometry">
            <mxPoint x="1560" y="1560" as="sourcePoint" />
            <mxPoint x="1330" y="1490" as="targetPoint" />
          </mxGeometry>
        </mxCell>
        <mxCell id="SMkMiiwuOo15J6uWJtSO-139" value="1" style="edgeLabel;html=1;align=center;verticalAlign=middle;resizable=0;points=[];" vertex="1" connectable="0" parent="SMkMiiwuOo15J6uWJtSO-138">
          <mxGeometry x="-0.82" relative="1" as="geometry">
            <mxPoint y="-10" as="offset" />
          </mxGeometry>
        </mxCell>
        <mxCell id="SMkMiiwuOo15J6uWJtSO-140" value="1" style="edgeLabel;html=1;align=center;verticalAlign=middle;resizable=0;points=[];" vertex="1" connectable="0" parent="SMkMiiwuOo15J6uWJtSO-138">
          <mxGeometry x="0.72" y="-1" relative="1" as="geometry">
            <mxPoint y="-11" as="offset" />
          </mxGeometry>
        </mxCell>
        <mxCell id="SMkMiiwuOo15J6uWJtSO-141" style="edgeStyle=none;rounded=0;orthogonalLoop=1;jettySize=auto;html=1;exitX=0.5;exitY=0;exitDx=0;exitDy=0;endArrow=block;endFill=0;dashed=1;entryX=0.5;entryY=1;entryDx=0;entryDy=0;" edge="1" parent="1" source="SMkMiiwuOo15J6uWJtSO-121" target="SMkMiiwuOo15J6uWJtSO-123">
          <mxGeometry relative="1" as="geometry">
            <mxPoint x="1570" y="1560" as="sourcePoint" />
            <mxPoint x="1640" y="1560" as="targetPoint" />
          </mxGeometry>
        </mxCell>
        <object label="" n="1" m="*" id="SMkMiiwuOo15J6uWJtSO-142">
          <mxCell style="edgeStyle=orthogonalEdgeStyle;rounded=0;orthogonalLoop=1;jettySize=auto;html=1;endArrow=none;endFill=0;entryX=0.5;entryY=1;entryDx=0;entryDy=0;" edge="1" parent="1" source="SMkMiiwuOo15J6uWJtSO-123" target="SMkMiiwuOo15J6uWJtSO-137">
            <mxGeometry relative="1" as="geometry">
              <mxPoint x="1560" y="1560" as="sourcePoint" />
              <mxPoint x="1650" y="1560" as="targetPoint" />
            </mxGeometry>
          </mxCell>
        </object>
        <mxCell id="SMkMiiwuOo15J6uWJtSO-143" value="1" style="edgeLabel;html=1;align=center;verticalAlign=middle;resizable=0;points=[];" vertex="1" connectable="0" parent="SMkMiiwuOo15J6uWJtSO-142">
          <mxGeometry x="0.1538" y="3" relative="1" as="geometry">
            <mxPoint x="-2" y="19" as="offset" />
          </mxGeometry>
        </mxCell>
        <mxCell id="SMkMiiwuOo15J6uWJtSO-144" value="N" style="edgeLabel;html=1;align=center;verticalAlign=middle;resizable=0;points=[];" vertex="1" connectable="0" parent="SMkMiiwuOo15J6uWJtSO-142">
          <mxGeometry x="0.1538" relative="1" as="geometry">
            <mxPoint x="5" y="-10" as="offset" />
          </mxGeometry>
        </mxCell>
        <mxCell id="SMkMiiwuOo15J6uWJtSO-145" style="edgeStyle=none;rounded=0;orthogonalLoop=1;jettySize=auto;html=1;exitX=0.5;exitY=0;exitDx=0;exitDy=0;endArrow=block;endFill=0;dashed=1;" edge="1" parent="1" source="SMkMiiwuOo15J6uWJtSO-122" target="SMkMiiwuOo15J6uWJtSO-124">
          <mxGeometry relative="1" as="geometry">
            <mxPoint x="1664.4400000000005" y="1930" as="sourcePoint" />
            <mxPoint x="1664" y="1880" as="targetPoint" />
          </mxGeometry>
        </mxCell>
        <object label="" n="1" m="*" id="SMkMiiwuOo15J6uWJtSO-146">
          <mxCell style="edgeStyle=orthogonalEdgeStyle;rounded=0;orthogonalLoop=1;jettySize=auto;html=1;exitX=0.5;exitY=0;exitDx=0;exitDy=0;endArrow=none;endFill=0;entryX=0.5;entryY=1;entryDx=0;entryDy=0;" edge="1" parent="1" source="SMkMiiwuOo15J6uWJtSO-124" target="SMkMiiwuOo15J6uWJtSO-86">
            <mxGeometry relative="1" as="geometry">
              <mxPoint x="1560" y="1740" as="sourcePoint" />
              <mxPoint x="1650" y="1740" as="targetPoint" />
            </mxGeometry>
          </mxCell>
        </object>
        <mxCell id="SMkMiiwuOo15J6uWJtSO-147" value="1" style="edgeLabel;html=1;align=center;verticalAlign=middle;resizable=0;points=[];" vertex="1" connectable="0" parent="SMkMiiwuOo15J6uWJtSO-146">
          <mxGeometry x="0.1538" y="3" relative="1" as="geometry">
            <mxPoint x="-2" y="19" as="offset" />
          </mxGeometry>
        </mxCell>
        <mxCell id="SMkMiiwuOo15J6uWJtSO-148" value="N" style="edgeLabel;html=1;align=center;verticalAlign=middle;resizable=0;points=[];" vertex="1" connectable="0" parent="SMkMiiwuOo15J6uWJtSO-146">
          <mxGeometry x="0.1538" relative="1" as="geometry">
            <mxPoint x="15" y="-1" as="offset" />
          </mxGeometry>
        </mxCell>
        <object label="&lt;font color=&quot;#ffffff&quot;&gt;&amp;lt;%type%&amp;gt;&lt;br&gt;%name%&lt;br&gt;%createAt%&lt;br&gt;%balance%&lt;br&gt;&lt;/font&gt;" placeholders="1" type="3rd System" name="Payment Confirmation" createAt="create_at" balance="balance" id="SMkMiiwuOo15J6uWJtSO-149">
          <mxCell style="rounded=1;whiteSpace=wrap;html=1;fillColor=#FFA033;noLabel=0;comic=0;recursiveResize=1;" vertex="1" parent="1">
            <mxGeometry x="2429.03" y="1550" width="170" height="100" as="geometry" />
          </mxCell>
        </object>
        <object label="&lt;font color=&quot;#ffffff&quot;&gt;&amp;lt;%type%&amp;gt;&lt;br&gt;%name%&lt;br&gt;%createAt%&lt;br&gt;&lt;/font&gt;" placeholders="1" type="Fulfilment" name="Promotion Confirmation" createAt="create_at" id="SMkMiiwuOo15J6uWJtSO-157">
          <mxCell style="rounded=1;whiteSpace=wrap;html=1;fillColor=#FFA033;noLabel=0;comic=0;recursiveResize=1;" vertex="1" parent="1">
            <mxGeometry x="2159.03" y="1730" width="170" height="100" as="geometry" />
          </mxCell>
        </object>
        <object label="&lt;font color=&quot;#ffffff&quot;&gt;&amp;lt;%type%&amp;gt;&lt;br&gt;%name%&lt;br&gt;%createAt%&lt;br&gt;%expireAt%&lt;br&gt;%price%&lt;br&gt;&lt;/font&gt;" placeholders="1" type="Fulfilment" name="Charge Request" createAt="create_at" expireAt="expire_at" price="price" id="SMkMiiwuOo15J6uWJtSO-161">
          <mxCell style="rounded=1;whiteSpace=wrap;html=1;fillColor=#FF66B3;noLabel=0;comic=0;recursiveResize=1;" vertex="1" parent="1">
            <mxGeometry x="1940" y="1550" width="170" height="100" as="geometry" />
          </mxCell>
        </object>
        <mxCell id="SMkMiiwuOo15J6uWJtSO-165" style="edgeStyle=none;rounded=0;orthogonalLoop=1;jettySize=auto;html=1;exitX=0;exitY=0.5;exitDx=0;exitDy=0;endArrow=block;endFill=0;dashed=1;entryX=1;entryY=0.5;entryDx=0;entryDy=0;" edge="1" parent="1" source="SMkMiiwuOo15J6uWJtSO-92" target="SMkMiiwuOo15J6uWJtSO-157">
          <mxGeometry relative="1" as="geometry">
            <mxPoint x="2179.03" y="1858.67" as="sourcePoint" />
            <mxPoint x="2249.03" y="1858.67" as="targetPoint" />
          </mxGeometry>
        </mxCell>
        <mxCell id="SMkMiiwuOo15J6uWJtSO-166" style="edgeStyle=none;rounded=0;orthogonalLoop=1;jettySize=auto;html=1;exitX=0;exitY=0.5;exitDx=0;exitDy=0;endArrow=block;endFill=0;dashed=1;entryX=1;entryY=0.5;entryDx=0;entryDy=0;" edge="1" parent="1" source="SMkMiiwuOo15J6uWJtSO-149" target="SMkMiiwuOo15J6uWJtSO-133">
          <mxGeometry relative="1" as="geometry">
            <mxPoint x="2254.03" y="1910" as="sourcePoint" />
            <mxPoint x="2254.03" y="1840" as="targetPoint" />
          </mxGeometry>
        </mxCell>
        <mxCell id="SMkMiiwuOo15J6uWJtSO-167" value="&lt;span id=&quot;docs-internal-guid-34931189-7fff-4843-f2a2-5530572dd627&quot;&gt;&lt;span style=&quot;font-size: 28pt ; font-family: &amp;#34;noto serif sc&amp;#34; , serif ; background-color: transparent ; font-weight: 900 ; vertical-align: baseline&quot;&gt;信息推广服务协议上下文&lt;/span&gt;&lt;/span&gt;" style="text;html=1;align=center;verticalAlign=middle;resizable=0;points=[];autosize=1;strokeColor=none;fillColor=none;" vertex="1" parent="1">
          <mxGeometry x="1810" y="1890" width="430" height="30" as="geometry" />
        </mxCell>
        <mxCell id="SMkMiiwuOo15J6uWJtSO-168" value="&lt;span id=&quot;docs-internal-guid-34931189-7fff-4843-f2a2-5530572dd627&quot;&gt;&lt;span style=&quot;font-size: 28pt ; font-family: &amp;#34;noto serif sc&amp;#34; , serif ; background-color: transparent ; font-weight: 900 ; vertical-align: baseline&quot;&gt;三方支付协议上下文&lt;/span&gt;&lt;/span&gt;" style="text;html=1;align=center;verticalAlign=middle;resizable=0;points=[];autosize=1;strokeColor=none;fillColor=none;" vertex="1" parent="1">
          <mxGeometry x="2379.03" y="1490" width="350" height="30" as="geometry" />
        </mxCell>
        <mxCell id="SMkMiiwuOo15J6uWJtSO-169" value="&lt;span id=&quot;docs-internal-guid-34931189-7fff-4843-f2a2-5530572dd627&quot;&gt;&lt;span style=&quot;font-size: 28pt ; font-family: &amp;#34;noto serif sc&amp;#34; , serif ; background-color: transparent ; font-weight: 900 ; vertical-align: baseline&quot;&gt;三方检测ADX协议上下文&lt;/span&gt;&lt;/span&gt;" style="text;html=1;align=center;verticalAlign=middle;resizable=0;points=[];autosize=1;strokeColor=none;fillColor=none;" vertex="1" parent="1">
          <mxGeometry x="2339.03" y="1850" width="430" height="30" as="geometry" />
        </mxCell>
        <mxCell id="SMkMiiwuOo15J6uWJtSO-170" value="" style="endArrow=none;dashed=1;html=1;dashPattern=1 3;strokeWidth=3;exitX=1;exitY=0;exitDx=0;exitDy=0;rounded=0;" edge="1" parent="1">
          <mxGeometry width="50" height="50" relative="1" as="geometry">
            <mxPoint x="2259.03" y="1885" as="sourcePoint" />
            <mxPoint x="2529.03" y="1680" as="targetPoint" />
            <Array as="points" />
          </mxGeometry>
        </mxCell>
        <mxCell id="SMkMiiwuOo15J6uWJtSO-171" value="" style="endArrow=none;dashed=1;html=1;dashPattern=1 3;strokeWidth=3;rounded=0;exitX=1.006;exitY=0.67;exitDx=0;exitDy=0;exitPerimeter=0;" edge="1" parent="1" source="SMkMiiwuOo15J6uWJtSO-133">
          <mxGeometry width="50" height="50" relative="1" as="geometry">
            <mxPoint x="2259.03" y="1500" as="sourcePoint" />
            <mxPoint x="2659.03" y="1710" as="targetPoint" />
            <Array as="points" />
          </mxGeometry>
        </mxCell>
        <object label="&lt;font color=&quot;#ffffff&quot;&gt;&amp;lt;%type%&amp;gt;&lt;br&gt;%name%&lt;br&gt;%createAt%&lt;br&gt;&lt;/font&gt;" placeholders="1" type="Contract" name="Auto Payment Sercice" createAt="create_at" id="SMkMiiwuOo15J6uWJtSO-172">
          <mxCell style="rounded=1;whiteSpace=wrap;html=1;fillColor=#FF66B3;noLabel=0;comic=0;recursiveResize=1;" vertex="1" parent="1">
            <mxGeometry x="2159.03" y="1360" width="170" height="100" as="geometry" />
          </mxCell>
        </object>
        <mxCell id="SMkMiiwuOo15J6uWJtSO-174" value="" style="endArrow=none;dashed=1;html=1;dashPattern=1 3;strokeWidth=3;rounded=0;" edge="1" parent="1">
          <mxGeometry width="50" height="50" relative="1" as="geometry">
            <mxPoint x="1999.03" y="1510" as="sourcePoint" />
            <mxPoint x="2779.03" y="1410" as="targetPoint" />
            <Array as="points" />
          </mxGeometry>
        </mxCell>
        <mxCell id="SMkMiiwuOo15J6uWJtSO-175" value="&lt;span id=&quot;docs-internal-guid-34931189-7fff-4843-f2a2-5530572dd627&quot;&gt;&lt;span style=&quot;font-size: 28pt ; font-family: &amp;#34;noto serif sc&amp;#34; , serif ; background-color: transparent ; font-weight: 900 ; vertical-align: baseline&quot;&gt;自动扣款协议上下文&lt;/span&gt;&lt;/span&gt;" style="text;html=1;align=center;verticalAlign=middle;resizable=0;points=[];autosize=1;strokeColor=none;fillColor=none;" vertex="1" parent="1">
          <mxGeometry x="1850" y="1415" width="350" height="30" as="geometry" />
        </mxCell>
        <object label="&lt;font color=&quot;#ffffff&quot;&gt;&amp;lt;%type%&amp;gt;&lt;br&gt;%name%&lt;br&gt;%createAt%&lt;br&gt;%amount%&lt;br&gt;&lt;/font&gt;" placeholders="1" type="Fulfilment" name="Auto Payment Request" createAt="create_at" amount="amount" id="SMkMiiwuOo15J6uWJtSO-176">
          <mxCell style="rounded=1;whiteSpace=wrap;html=1;fillColor=#FF66B3;noLabel=0;comic=0;recursiveResize=1;" vertex="1" parent="1">
            <mxGeometry x="2332.2200000000003" y="1190" width="170" height="100" as="geometry" />
          </mxCell>
        </object>
        <object label="&lt;font color=&quot;#ffffff&quot;&gt;&amp;lt;%type%&amp;gt;&lt;br&gt;%name%&lt;br&gt;%createAt%&lt;br&gt;%amount%&lt;br&gt;&lt;/font&gt;" placeholders="1" type="Evidence" name="Auto Payment Confirmation" createAt="create_at" amount="amount" id="SMkMiiwuOo15J6uWJtSO-177">
          <mxCell style="rounded=1;whiteSpace=wrap;html=1;fillColor=#FF66B3;noLabel=0;comic=0;recursiveResize=1;" vertex="1" parent="1">
            <mxGeometry x="2350.0000000000005" y="1330" width="170" height="100" as="geometry" />
          </mxCell>
        </object>
        <mxCell id="SMkMiiwuOo15J6uWJtSO-179" value="1" style="edgeLabel;html=1;align=center;verticalAlign=middle;resizable=0;points=[];" vertex="1" connectable="0" parent="1">
          <mxGeometry x="2321.5533333333337" y="1410" as="geometry" />
        </mxCell>
        <object label="" n="1" m="*" id="SMkMiiwuOo15J6uWJtSO-180">
          <mxCell style="edgeStyle=orthogonalEdgeStyle;rounded=0;orthogonalLoop=1;jettySize=auto;html=1;exitX=0.5;exitY=1;exitDx=0;exitDy=0;endArrow=none;endFill=0;" edge="1" parent="1" source="SMkMiiwuOo15J6uWJtSO-176" target="SMkMiiwuOo15J6uWJtSO-177">
            <mxGeometry relative="1" as="geometry">
              <mxPoint x="1982.2199999999998" y="1240" as="sourcePoint" />
              <mxPoint x="2072.22" y="1240" as="targetPoint" />
              <Array as="points">
                <mxPoint x="2407.2200000000003" y="1350" />
                <mxPoint x="2407.2200000000003" y="1350" />
              </Array>
            </mxGeometry>
          </mxCell>
        </object>
        <mxCell id="SMkMiiwuOo15J6uWJtSO-181" value="1" style="edgeLabel;html=1;align=center;verticalAlign=middle;resizable=0;points=[];" vertex="1" connectable="0" parent="SMkMiiwuOo15J6uWJtSO-180">
          <mxGeometry x="0.1538" y="3" relative="1" as="geometry">
            <mxPoint x="-8" y="-32" as="offset" />
          </mxGeometry>
        </mxCell>
        <mxCell id="SMkMiiwuOo15J6uWJtSO-182" value="N" style="edgeLabel;html=1;align=center;verticalAlign=middle;resizable=0;points=[];" vertex="1" connectable="0" parent="SMkMiiwuOo15J6uWJtSO-180">
          <mxGeometry x="0.1538" relative="1" as="geometry">
            <mxPoint x="5" y="28" as="offset" />
          </mxGeometry>
        </mxCell>
        <object label="&lt;font color=&quot;#ffffff&quot;&gt;&amp;lt;%type%&amp;gt;&lt;br&gt;%name%&lt;br&gt;%createAt%&lt;br&gt;%amount%&lt;br&gt;&lt;/font&gt;" placeholders="1" type="Evidence" name="Bill" createAt="create_at" amount="amount" id="SMkMiiwuOo15J6uWJtSO-183">
          <mxCell style="rounded=1;whiteSpace=wrap;html=1;fillColor=#FF66B3;noLabel=0;comic=0;recursiveResize=1;" vertex="1" parent="1">
            <mxGeometry x="2582.2200000000003" y="1190" width="170" height="100" as="geometry" />
          </mxCell>
        </object>
        <mxCell id="SMkMiiwuOo15J6uWJtSO-184" style="edgeStyle=orthogonalEdgeStyle;rounded=0;orthogonalLoop=1;jettySize=auto;html=1;endArrow=none;endFill=0;entryX=0;entryY=0.5;entryDx=0;entryDy=0;exitX=1;exitY=0.5;exitDx=0;exitDy=0;" edge="1" parent="1" source="SMkMiiwuOo15J6uWJtSO-176" target="SMkMiiwuOo15J6uWJtSO-183">
          <mxGeometry relative="1" as="geometry">
            <mxPoint x="2162.2200000000003" y="1270" as="sourcePoint" />
            <mxPoint x="2177.2200000000003" y="1380" as="targetPoint" />
            <Array as="points">
              <mxPoint x="2492.2200000000003" y="1240" />
              <mxPoint x="2562.2200000000003" y="1240" />
            </Array>
          </mxGeometry>
        </mxCell>
        <mxCell id="SMkMiiwuOo15J6uWJtSO-185" value="1" style="edgeLabel;html=1;align=center;verticalAlign=middle;resizable=0;points=[];" vertex="1" connectable="0" parent="SMkMiiwuOo15J6uWJtSO-184">
          <mxGeometry x="-0.82" relative="1" as="geometry">
            <mxPoint y="-10" as="offset" />
          </mxGeometry>
        </mxCell>
        <mxCell id="SMkMiiwuOo15J6uWJtSO-186" value="N" style="edgeLabel;html=1;align=center;verticalAlign=middle;resizable=0;points=[];" vertex="1" connectable="0" parent="SMkMiiwuOo15J6uWJtSO-184">
          <mxGeometry x="0.72" y="-1" relative="1" as="geometry">
            <mxPoint y="-11" as="offset" />
          </mxGeometry>
        </mxCell>
        <mxCell id="SMkMiiwuOo15J6uWJtSO-188" style="edgeStyle=orthogonalEdgeStyle;rounded=0;orthogonalLoop=1;jettySize=auto;html=1;exitX=0;exitY=0.5;exitDx=0;exitDy=0;entryX=0.5;entryY=0;entryDx=0;entryDy=0;endArrow=none;endFill=0;" edge="1" parent="1" source="SMkMiiwuOo15J6uWJtSO-176" target="SMkMiiwuOo15J6uWJtSO-172">
          <mxGeometry relative="1" as="geometry">
            <mxPoint x="2109.03" y="1320" as="sourcePoint" />
            <mxPoint x="2209.03" y="1320" as="targetPoint" />
          </mxGeometry>
        </mxCell>
        <mxCell id="SMkMiiwuOo15J6uWJtSO-189" value="1" style="edgeLabel;html=1;align=center;verticalAlign=middle;resizable=0;points=[];" vertex="1" connectable="0" parent="SMkMiiwuOo15J6uWJtSO-188">
          <mxGeometry x="-0.82" relative="1" as="geometry">
            <mxPoint y="-10" as="offset" />
          </mxGeometry>
        </mxCell>
        <mxCell id="SMkMiiwuOo15J6uWJtSO-190" value="1" style="edgeLabel;html=1;align=center;verticalAlign=middle;resizable=0;points=[];" vertex="1" connectable="0" parent="SMkMiiwuOo15J6uWJtSO-188">
          <mxGeometry x="0.72" y="-1" relative="1" as="geometry">
            <mxPoint y="-11" as="offset" />
          </mxGeometry>
        </mxCell>
        <mxCell id="SMkMiiwuOo15J6uWJtSO-193" style="edgeStyle=orthogonalEdgeStyle;rounded=0;orthogonalLoop=1;jettySize=auto;html=1;exitX=1;exitY=0.5;exitDx=0;exitDy=0;entryX=0;entryY=0.5;entryDx=0;entryDy=0;endArrow=none;endFill=0;" edge="1" parent="1" source="SMkMiiwuOo15J6uWJtSO-86" target="SMkMiiwuOo15J6uWJtSO-161">
          <mxGeometry relative="1" as="geometry">
            <mxPoint x="1640" y="1570" as="sourcePoint" />
            <mxPoint x="1740" y="1570" as="targetPoint" />
          </mxGeometry>
        </mxCell>
        <mxCell id="SMkMiiwuOo15J6uWJtSO-194" value="1" style="edgeLabel;html=1;align=center;verticalAlign=middle;resizable=0;points=[];" vertex="1" connectable="0" parent="SMkMiiwuOo15J6uWJtSO-193">
          <mxGeometry x="-0.82" relative="1" as="geometry">
            <mxPoint y="-10" as="offset" />
          </mxGeometry>
        </mxCell>
        <mxCell id="SMkMiiwuOo15J6uWJtSO-195" value="1" style="edgeLabel;html=1;align=center;verticalAlign=middle;resizable=0;points=[];" vertex="1" connectable="0" parent="SMkMiiwuOo15J6uWJtSO-193">
          <mxGeometry x="0.72" y="-1" relative="1" as="geometry">
            <mxPoint y="-11" as="offset" />
          </mxGeometry>
        </mxCell>
        <object label="&lt;font color=&quot;#ffffff&quot;&gt;&lt;b&gt;%name%&lt;/b&gt;&lt;br&gt;&lt;/font&gt;" placeholders="1" type="Role" name="Provider" id="SMkMiiwuOo15J6uWJtSO-196">
          <mxCell style="rounded=1;whiteSpace=wrap;html=1;noLabel=0;comic=0;recursiveResize=1;fillColor=#FFA033;" vertex="1" parent="1">
            <mxGeometry x="2040" y="1625" width="80" height="30" as="geometry" />
          </mxCell>
        </object>
        <object label="&lt;font color=&quot;#ffffff&quot;&gt;&lt;b&gt;%name%&lt;/b&gt;&lt;br&gt;&lt;/font&gt;" placeholders="1" type="Role" name="Consumer" id="SMkMiiwuOo15J6uWJtSO-197">
          <mxCell style="rounded=1;whiteSpace=wrap;html=1;noLabel=0;comic=0;recursiveResize=1;fillColor=#FFA033;" vertex="1" parent="1">
            <mxGeometry x="2050" y="1810" width="80" height="30" as="geometry" />
          </mxCell>
        </object>
        <object label="&lt;font color=&quot;#ffffff&quot;&gt;&lt;b&gt;%name%&lt;/b&gt;&lt;br&gt;&lt;/font&gt;" placeholders="1" type="Role" name="Consumer" id="SMkMiiwuOo15J6uWJtSO-198">
          <mxCell style="rounded=1;whiteSpace=wrap;html=1;noLabel=0;comic=0;recursiveResize=1;fillColor=#FFA033;" vertex="1" parent="1">
            <mxGeometry x="2259.03" y="1630" width="80" height="30" as="geometry" />
          </mxCell>
        </object>
        <object label="&lt;font color=&quot;#ffffff&quot;&gt;&lt;b&gt;%name%&lt;/b&gt;&lt;br&gt;&lt;/font&gt;" placeholders="1" type="Role" name="Provider" id="SMkMiiwuOo15J6uWJtSO-199">
          <mxCell style="rounded=1;whiteSpace=wrap;html=1;noLabel=0;comic=0;recursiveResize=1;fillColor=#FFA033;" vertex="1" parent="1">
            <mxGeometry x="2270" y="1810" width="80" height="30" as="geometry" />
          </mxCell>
        </object>
        <mxCell id="SMkMiiwuOo15J6uWJtSO-200" style="edgeStyle=none;rounded=0;orthogonalLoop=1;jettySize=auto;html=1;exitX=0.5;exitY=1;exitDx=0;exitDy=0;endArrow=block;endFill=0;dashed=1;entryX=0.5;entryY=0;entryDx=0;entryDy=0;" edge="1" parent="1" source="SMkMiiwuOo15J6uWJtSO-172" target="SMkMiiwuOo15J6uWJtSO-133">
          <mxGeometry relative="1" as="geometry">
            <mxPoint x="2439.0300000000007" y="1610" as="sourcePoint" />
            <mxPoint x="2339.03" y="1610" as="targetPoint" />
          </mxGeometry>
        </mxCell>
      </root>
    </mxGraphModel>
  </diagram>
</mxfile>
